<svg width="512" height="512" viewBox="0 0 512 512" fill="none" xmlns="http://www.w3.org/2000/svg">
  <rect width="512" height="512" rx="112" fill="#0B0F14"/>
  <path d="M128 273C128 204.516 183.516 149 252 149H260C328.484 149 384 204.516 384 273H128Z" fill="#FF4D18"/>
  <path d="M133 295H379C390.046 295 399 303.954 399 315C399 326.046 390.046 335 379 335H133C121.954 335 113 326.046 113 315C113 303.954 121.954 295 133 295Z" fill="#FFE1D6"/>
  <path d="M148 357H364C374.493 357 383 365.507 383 376C383 386.493 374.493 395 364 395H148C137.507 395 129 386.493 129 376C129 365.507 137.507 357 148 357Z" fill="#FFB000"/>
  <circle cx="212" cy="212" r="10" fill="#FFE1D6"/>
  <circle cx="258" cy="196" r="10" fill="#FFE1D6"/>
  <circle cx="306" cy="219" r="10" fill="#FFE1D6"/>
</svg>
